<svg width="13" height="13" viewBox="0 0 13 13" fill="none" xmlns="http://www.w3.org/2000/svg">
<path d="M1.29289 10.2426L0.585786 10.9497L2 12.3639L2.70711 11.6568L1.29289 10.2426ZM12.8995 1.05021C12.8995 0.497927 12.4518 0.050212 11.8995 0.0502124L2.89949 0.0502126C2.34721 0.0502122 1.89949 0.497927 1.89949 1.05021C1.89949 1.6025 2.34721 2.05021 2.89949 2.05021L10.8995 2.05021L10.8995 10.0502C10.8995 10.6025 11.3472 11.0502 11.8995 11.0502C12.4518 11.0502 12.8995 10.6025 12.8995 10.0502L12.8995 1.05021ZM2.70711 11.6568L12.6066 1.75732L11.1924 0.343105L1.29289 10.2426L2.70711 11.6568Z" fill="#00642D"/>
</svg>
