<svg width="72" height="72" viewBox="0 0 72 72" fill="none" xmlns="http://www.w3.org/2000/svg">
<path d="M52 0H20C8.9543 0 0 8.9543 0 20V52C0 63.0457 8.9543 72 20 72H52C63.0457 72 72 63.0457 72 52V20C72 8.9543 63.0457 0 52 0Z" fill="#F7541C"/>
<path d="M52.89 20.2197H19.11C16.0117 20.2197 13.5 22.7314 13.5 25.8297V46.1797C13.5 49.278 16.0117 51.7897 19.11 51.7897H52.89C55.9883 51.7897 58.5 49.278 58.5 46.1797V25.8297C58.5 22.7314 55.9883 20.2197 52.89 20.2197Z" fill="#F2F2F2"/>
<path d="M54.89 28.33L40.36 38.0399C39.0688 38.9007 37.5518 39.3601 36 39.3601C34.4482 39.3601 32.9312 38.9007 31.64 38.0399L16.5 27.9199" stroke="#F7541C" stroke-width="1.5" stroke-miterlimit="10"/>
</svg>
