<svg width="72" height="72" viewBox="0 0 72 72" fill="none" xmlns="http://www.w3.org/2000/svg">
<path d="M52 0H20C8.9543 0 0 8.9543 0 20V52C0 63.0457 8.9543 72 20 72H52C63.0457 72 72 63.0457 72 52V20C72 8.9543 63.0457 0 52 0Z" fill="#F7541C"/>
<path d="M52.1406 56.9397C54.4306 56.8297 58.3706 54.3198 58.4006 49.1298C58.4006 47.5698 58.4007 46.6397 56.8707 45.5797C55.8207 44.8197 54.5406 43.8497 52.3306 42.4297C51.3292 41.7945 50.1759 41.4391 48.9907 41.4004C47.8054 41.3617 46.6314 41.6412 45.5906 42.2097L41.9006 44.7997C41.4097 45.1444 40.8395 45.3591 40.2432 45.4239C39.6469 45.4886 39.044 45.4011 38.4907 45.1697C35.8786 44.0734 33.502 42.4846 31.4907 40.4898C29.4994 38.4756 27.9109 36.0997 26.8106 33.4898C26.5792 32.9364 26.4918 32.3334 26.5565 31.7371C26.6212 31.1408 26.8359 30.5706 27.1806 30.0797L29.7706 26.3898C30.3391 25.3491 30.6186 24.175 30.5799 22.9898C30.5412 21.8045 30.1858 20.6511 29.5506 19.6497C28.1306 17.4397 27.3306 16.2897 26.6806 15.1697C26.3828 14.5834 25.9451 14.0797 25.4061 13.7029C24.8671 13.3261 24.2436 13.0881 23.5906 13.0098C17.2806 12.6598 14.7707 17.6298 14.7207 19.0098C14.7207 20.5898 13.2307 32.1297 26.7207 45.1797C40.2107 58.2297 49.7306 57.0497 52.1406 56.9397Z" fill="#F2F2F2"/>
</svg>
