<svg width="72" height="72" viewBox="0 0 72 72" fill="none" xmlns="http://www.w3.org/2000/svg">
<path d="M52 0H20C8.9543 0 0 8.9543 0 20V52C0 63.0457 8.9543 72 20 72H52C63.0457 72 72 63.0457 72 52V20C72 8.9543 63.0457 0 52 0Z" fill="#F7541C"/>
<path d="M43.9213 25.2197C52.3213 25.6097 59.0013 31.8497 59.0013 39.4697C58.9646 41.7107 58.3839 43.9091 57.3091 45.8759C56.2343 47.8426 54.6976 49.5187 52.8313 50.7598C53.1215 52.1415 53.864 53.3871 54.9413 54.2997C55.6613 54.9797 55.0113 55.6398 54.0312 55.7598C51.9113 56.0098 49.5812 54.7597 48.0312 53.0397C46.3992 53.4766 44.7204 53.7151 43.0312 53.7498C36.1112 53.7498 30.2213 49.7497 28.0312 44.2697" stroke="#F2F2F2" stroke-width="1.5" stroke-miterlimit="10"/>
<path d="M41.25 28.87C41.25 35.87 34.93 41.5199 27.13 41.5199C25.6366 41.4898 24.1524 41.2784 22.71 40.89C22.0692 41.6722 21.2569 42.2963 20.3361 42.7142C19.4153 43.1321 18.4107 43.3325 17.4 43.2999C16.54 43.1999 15.96 42.62 16.6 42.01C17.5528 41.1984 18.2103 40.0944 18.47 38.87C16.816 37.7713 15.454 36.287 14.5011 34.5449C13.5482 32.8029 13.033 30.8553 13 28.87C13 21.87 19.32 16.21 27.13 16.21C34.94 16.21 41.25 21.88 41.25 28.87Z" fill="#F2F2F2"/>
<path d="M22.0906 30.0699C22.7534 30.0699 23.2906 29.5327 23.2906 28.8699C23.2906 28.2072 22.7534 27.6699 22.0906 27.6699C21.4279 27.6699 20.8906 28.2072 20.8906 28.8699C20.8906 29.5327 21.4279 30.0699 22.0906 30.0699Z" fill="#F7541C"/>
<path d="M27.1297 30.0699C27.7924 30.0699 28.3297 29.5327 28.3297 28.8699C28.3297 28.2072 27.7924 27.6699 27.1297 27.6699C26.467 27.6699 25.9297 28.2072 25.9297 28.8699C25.9297 29.5327 26.467 30.0699 27.1297 30.0699Z" fill="#F7541C"/>
<path d="M32.1609 30.0699C32.8237 30.0699 33.3609 29.5327 33.3609 28.8699C33.3609 28.2072 32.8237 27.6699 32.1609 27.6699C31.4982 27.6699 30.9609 28.2072 30.9609 28.8699C30.9609 29.5327 31.4982 30.0699 32.1609 30.0699Z" fill="#F7541C"/>
</svg>
