<svg width="75" height="74" viewBox="0 0 75 74" fill="none" xmlns="http://www.w3.org/2000/svg">
<path d="M53.334 1H21.334C10.2883 1 1.33398 9.9543 1.33398 21V53C1.33398 64.0457 10.2883 73 21.334 73H53.334C64.3797 73 73.334 64.0457 73.334 53V21C73.334 9.9543 64.3797 1 53.334 1Z" stroke="#F7541C" stroke-width="1.5" stroke-miterlimit="10"/>
<path d="M45.2533 26.2197C53.6533 26.6097 60.3333 32.8497 60.3333 40.4697C60.2967 42.7107 59.7159 44.9091 58.6411 46.8759C57.5663 48.8426 56.0296 50.5187 54.1633 51.7598C54.4535 53.1415 55.196 54.3871 56.2733 55.2997C56.9933 55.9797 56.3433 56.6398 55.3633 56.7598C53.2433 57.0098 50.9133 55.7597 49.3633 54.0397C47.7312 54.4766 46.0524 54.7151 44.3633 54.7498C37.4433 54.7498 31.5533 50.7497 29.3633 45.2697" stroke="#F7541C" stroke-width="1.5" stroke-miterlimit="10"/>
<path d="M42.584 29.87C42.584 36.87 36.264 42.5199 28.464 42.5199C26.9706 42.4898 25.4864 42.2784 24.044 41.89C23.4031 42.6722 22.5908 43.2963 21.67 43.7142C20.7493 44.1321 19.7447 44.3325 18.734 44.2999C17.874 44.1999 17.294 43.62 17.934 43.01C18.8868 42.1984 19.5443 41.0944 19.804 39.87C18.15 38.7713 16.788 37.287 15.8351 35.5449C14.8822 33.8029 14.367 31.8553 14.334 29.87C14.334 22.87 20.654 17.21 28.464 17.21C36.274 17.21 42.584 22.88 42.584 29.87Z" stroke="#F7541C" stroke-width="1.5" stroke-miterlimit="10"/>
<path d="M23.4227 31.0699C24.0854 31.0699 24.6227 30.5327 24.6227 29.8699C24.6227 29.2072 24.0854 28.6699 23.4227 28.6699C22.7599 28.6699 22.2227 29.2072 22.2227 29.8699C22.2227 30.5327 22.7599 31.0699 23.4227 31.0699Z" fill="#F7541C"/>
<path d="M28.4637 31.0699C29.1264 31.0699 29.6637 30.5327 29.6637 29.8699C29.6637 29.2072 29.1264 28.6699 28.4637 28.6699C27.8009 28.6699 27.2637 29.2072 27.2637 29.8699C27.2637 30.5327 27.8009 31.0699 28.4637 31.0699Z" fill="#F7541C"/>
<path d="M33.493 31.0699C34.1557 31.0699 34.693 30.5327 34.693 29.8699C34.693 29.2072 34.1557 28.6699 33.493 28.6699C32.8302 28.6699 32.293 29.2072 32.293 29.8699C32.293 30.5327 32.8302 31.0699 33.493 31.0699Z" fill="#F7541C"/>
</svg>
