<svg width="72" height="72" viewBox="0 0 72 72" fill="none" xmlns="http://www.w3.org/2000/svg">
<path d="M52 0H20C8.9543 0 0 8.9543 0 20V52C0 63.0457 8.9543 72 20 72H52C63.0457 72 72 63.0457 72 52V20C72 8.9543 63.0457 0 52 0Z" fill="#F7541C"/>
<path d="M44.3369 56.4278C55.6166 51.9116 61.0996 39.1065 56.5835 27.8267C52.0673 16.5469 39.2622 11.0639 27.9824 15.5801C16.7027 20.0963 11.2197 32.9014 15.7358 44.1812C20.252 55.4609 33.0571 60.9439 44.3369 56.4278Z" fill="#F2F2F2" stroke="#F2F2F2" stroke-width="1.5" stroke-miterlimit="10"/>
<path d="M36.0196 58C42.4648 58 47.6896 48.1503 47.6896 36C47.6896 23.8497 42.4648 14 36.0196 14C29.5745 14 24.3496 23.8497 24.3496 36C24.3496 48.1503 29.5745 58 36.0196 58Z" stroke="#F7541C" stroke-width="1.5" stroke-miterlimit="10"/>
<path d="M52.8999 21.9C49.1599 24.76 43.1699 26.6101 36.4199 26.6101C29.3699 26.6101 23.1499 24.61 19.4199 21.52" stroke="#F7541C" stroke-width="1.5" stroke-miterlimit="10"/>
<path d="M52.8999 50.1001C49.1599 47.2401 43.1699 45.3901 36.4199 45.3901C29.3699 45.3901 23.1499 47.3901 19.4199 50.4801" stroke="#F7541C" stroke-width="1.5" stroke-miterlimit="10"/>
<path d="M36.0195 14V58" stroke="#F7541C" stroke-width="1.5" stroke-miterlimit="10"/>
<path d="M14.0195 36H58.0195" stroke="#F7541C" stroke-width="1.5" stroke-miterlimit="10"/>
</svg>
