<svg width="74" height="74" viewBox="0 0 74 74" fill="none" xmlns="http://www.w3.org/2000/svg">
<path d="M53 1H21C9.9543 1 1 9.9543 1 21V53C1 64.0457 9.9543 73 21 73H53C64.0457 73 73 64.0457 73 53V21C73 9.9543 64.0457 1 53 1Z" stroke="#F7541C" stroke-width="1.5" stroke-miterlimit="10"/>
<path d="M45.3369 57.4278C56.6166 52.9116 62.0996 40.1065 57.5835 28.8267C53.0673 17.5469 40.2622 12.0639 28.9824 16.5801C17.7027 21.0963 12.2197 33.9014 16.7358 45.1812C21.252 56.4609 34.0571 61.9439 45.3369 57.4278Z" stroke="#F7541C" stroke-width="1.5" stroke-miterlimit="10"/>
<path d="M37.0196 59C43.4648 59 48.6896 49.1503 48.6896 37C48.6896 24.8497 43.4648 15 37.0196 15C30.5745 15 25.3496 24.8497 25.3496 37C25.3496 49.1503 30.5745 59 37.0196 59Z" stroke="#F7541C" stroke-width="1.5" stroke-miterlimit="10"/>
<path d="M53.8999 22.9C50.1599 25.76 44.1699 27.6101 37.4199 27.6101C30.3699 27.6101 24.1499 25.61 20.4199 22.52" stroke="#F7541C" stroke-width="1.5" stroke-miterlimit="10"/>
<path d="M53.8999 51.1001C50.1599 48.2401 44.1699 46.3901 37.4199 46.3901C30.3699 46.3901 24.1499 48.3901 20.4199 51.4801" stroke="#F7541C" stroke-width="1.5" stroke-miterlimit="10"/>
<path d="M37.0195 15V59" stroke="#F7541C" stroke-width="1.5" stroke-miterlimit="10"/>
<path d="M15.0195 37H59.0195" stroke="#F7541C" stroke-width="1.5" stroke-miterlimit="10"/>
</svg>
