<svg width="74" height="74" viewBox="0 0 74 74" fill="none" xmlns="http://www.w3.org/2000/svg">
<path d="M53 1H21C9.9543 1 1 9.9543 1 21V53C1 64.0457 9.9543 73 21 73H53C64.0457 73 73 64.0457 73 53V21C73 9.9543 64.0457 1 53 1Z" stroke="#F7541C" stroke-width="1.5" stroke-miterlimit="10"/>
<path d="M53.1406 57.9397C55.4306 57.8297 59.3706 55.3198 59.4006 50.1298C59.4006 48.5698 59.4007 47.6397 57.8707 46.5797C56.8207 45.8197 55.5406 44.8497 53.3306 43.4297C52.3292 42.7945 51.1759 42.4391 49.9907 42.4004C48.8054 42.3617 47.6314 42.6412 46.5906 43.2097L42.9006 45.7997C42.4097 46.1444 41.8395 46.3591 41.2432 46.4239C40.6469 46.4886 40.044 46.4011 39.4907 46.1697C36.8786 45.0734 34.502 43.4846 32.4907 41.4898C30.4994 39.4756 28.9109 37.0997 27.8106 34.4898C27.5792 33.9364 27.4918 33.3334 27.5565 32.7371C27.6212 32.1408 27.8359 31.5706 28.1806 31.0797L30.7706 27.3898C31.3391 26.3491 31.6186 25.175 31.5799 23.9898C31.5412 22.8045 31.1858 21.6511 30.5506 20.6497C29.1306 18.4397 28.3306 17.2897 27.6806 16.1697C27.3828 15.5834 26.9451 15.0797 26.4061 14.7029C25.8671 14.3261 25.2436 14.0881 24.5906 14.0098C18.2806 13.6598 15.7707 18.6298 15.7207 20.0098C15.7207 21.5898 14.2307 33.1297 27.7207 46.1797C41.2107 59.2297 50.7306 58.0497 53.1406 57.9397Z" stroke="#F7541C" stroke-width="1.5" stroke-miterlimit="10"/>
</svg>
