<svg width="75" height="74" viewBox="0 0 75 74" fill="none" xmlns="http://www.w3.org/2000/svg">
<path d="M53.666 1H21.666C10.6203 1 1.66602 9.9543 1.66602 21V53C1.66602 64.0457 10.6203 73 21.666 73H53.666C64.7117 73 73.666 64.0457 73.666 53V21C73.666 9.9543 64.7117 1 53.666 1Z" stroke="#F7541C" stroke-width="1.5" stroke-miterlimit="10"/>
<path d="M54.556 21.2197H20.776C17.6777 21.2197 15.166 23.7314 15.166 26.8297V47.1797C15.166 50.278 17.6777 52.7897 20.776 52.7897H54.556C57.6543 52.7897 60.166 50.278 60.166 47.1797V26.8297C60.166 23.7314 57.6543 21.2197 54.556 21.2197Z" stroke="#F7541C" stroke-width="1.5" stroke-miterlimit="10"/>
<path d="M56.556 29.33L42.026 39.0399C40.7348 39.9007 39.2178 40.3601 37.666 40.3601C36.1142 40.3601 34.5972 39.9007 33.306 39.0399L18.166 28.9199" stroke="#F7541C" stroke-width="1.5" stroke-miterlimit="10"/>
</svg>
