<svg width="32" height="32" viewBox="0 0 32 32" fill="none" xmlns="http://www.w3.org/2000/svg">
<path d="M17.0027 31C21.3643 31 25.3648 30.8503 28.1021 28.124C30.8394 25.3976 31 21.4128 31 17.0586V14.9414C31 10.5972 30.8394 6.61264 28.1021 3.87629C25.3648 1.13994 21.3643 1 17.0027 1H14.9973C10.6357 1 6.63518 1.14993 3.89787 3.87629C1.16057 6.60265 1 10.5972 1 14.9414V17.0187C1 21.3728 1.15054 25.3576 3.89787 28.084C6.64521 30.8103 10.6357 31 14.9973 31H17.0027Z" stroke="#F7541C" stroke-width="1.5" stroke-miterlimit="10"/>
<path d="M17.413 6.82295L19.0025 11.6592C19.0712 11.8542 19.1985 12.024 19.3671 12.1456C19.5356 12.2672 19.7375 12.3351 19.946 12.3401H25.0741C25.2723 12.3593 25.4607 12.4352 25.616 12.5586C25.7713 12.682 25.887 12.8474 25.949 13.0349C26.011 13.2224 26.0166 13.4236 25.9651 13.6141C25.9135 13.8047 25.8074 13.9764 25.6591 14.108L21.505 17.1053C21.3419 17.2299 21.2204 17.4001 21.1564 17.594C21.0924 17.7879 21.0886 17.9966 21.1459 18.1926L22.7359 23.0392C22.7782 23.2327 22.7622 23.4342 22.6903 23.6189C22.6185 23.8037 22.4941 23.9636 22.3318 24.0791C22.1694 24.1946 21.9766 24.2607 21.7769 24.2691C21.5772 24.2775 21.3791 24.2277 21.2075 24.1262L17.105 21.1391C16.9343 21.0233 16.7324 20.9615 16.5255 20.9615C16.3187 20.9615 16.1168 21.0233 15.9461 21.1391L11.7925 24.1262C11.6209 24.2277 11.4228 24.2775 11.2231 24.2691C11.0234 24.2607 10.8306 24.1946 10.6682 24.0791C10.5059 23.9636 10.3815 23.8037 10.3097 23.6189C10.2378 23.4342 10.2218 23.2327 10.2641 23.0392L11.8541 18.1926C11.9114 17.9966 11.9076 17.7879 11.8436 17.594C11.7796 17.4001 11.6581 17.2299 11.495 17.1053L7.34093 14.108C7.19264 13.9764 7.08648 13.8047 7.03494 13.6141C6.98341 13.4236 6.98898 13.2224 7.05097 13.0349C7.11296 12.8474 7.22865 12.682 7.384 12.5586C7.53934 12.4352 7.72769 12.3593 7.92586 12.3401H13.054C13.2625 12.3351 13.4644 12.2672 13.6329 12.1456C13.8015 12.024 13.9288 11.8542 13.9975 11.6592L15.587 6.82295C15.6731 6.65652 15.8041 6.51664 15.9651 6.4191C16.1262 6.32157 16.3112 6.27002 16.5 6.27002C16.6888 6.27002 16.8738 6.32157 17.0349 6.4191C17.1959 6.51664 17.3269 6.65652 17.413 6.82295Z" fill="#F7541C"/>
</svg>
